{"title":"Gambit 2012 BRRip 720p x264 AAC - PRiSTiNE [P2PDL]","uid":8220539,"size":530691464,"categoryP":"video","categoryS":"hd___movies","magnet":"?xt=urn:btih:314b34cbb29ed42c761c2ea4ce3a83af40ed95b8&amp;dn=Gambit+2012+BRRip+720p+x264+AAC+-+PRiSTiNE+%5BP2PDL%5D&amp;tr=udp%3A%2F%2Ftracker.openbittorrent.com%3A80&amp;tr=udp%3A%2F%2Fopen.demonii.com%3A1337&amp;tr=udp%3A%2F%2Ftracker.coppersurfer.tk%3A6969&amp;tr=udp%3A%2F%2Fexodus.desync.com%3A6969","seeders":1,"leechers":0,"uploader":"Vitamin_X","files":-1,"time":1362467922,"description":"_________________________  Visit us at _________________________\n  &lt;a href=&quot;\nhttp://p2pdl.com&quot; rel=&quot;nofollow&quot; target=&quot;_NEW&quot;&gt;\nhttp://p2pdl.com&lt;/a&gt;  ____________________________ &lt;a href=&quot; http://p2pdl.com&quot; rel=&quot;nofollow&quot; target=&quot;_NEW&quot;&gt; http://p2pdl.com&lt;/a&gt;\n\nGambit 2012 BRRip 720p x264 AAC - PRiSTiNE\n\nGenre: Comedy | Crime\nPlot: An art curator decides to seek revenge on his abusive boss by \nconning him into buying a fake Monet, but his plan requires the help \nof an eccentric and unpredictable Texas rodeo queen.\nDirector: Michael Hoffman\nStars: Colin Firth, Cameron Diaz, Alan Rickman\nRated: Rated PG-13 for some suggestive content, partial nudity and a rude gesture\n\nInfo: &lt;a href=&quot;\nhttp://www.imdb.com/title/tt0404978/&quot; rel=&quot;nofollow&quot; target=&quot;_NEW&quot;&gt;\nhttp://www.imdb.com/title/tt0404978/&lt;/a&gt;\n\nGeneral\nComplete name                  : Gambit 2012 BRRip 720p x264 AAC - PRiSTiNE.mp4\nFormat                         : MPEG-4\nFormat profile                 : Base Media\nCodec ID                       : isom\nFile size                      : 501 MiB\nDuration                       : 1h 29mn\nOverall bit rate mode          : Variable\nOverall bit rate               : 786 Kbps\n\nSource                         : 720p.BluRay.X264-AMIABLE (Thanks)\n\nVideo\nFormat                         : AVC\nFormat/Info                    : Advanced Video Codec\nFormat profile                 : High &lt;a class=&quot;__cf_email__&quot; href=&quot;/cdn-cgi/l/email-protection&quot; data-cfemail=&quot;9cadacdcd0a8b2ad&quot;&gt;[email&amp;#160;protected]&lt;/a&gt;&lt;script cf-hash='f9e31' type=&quot;text/javascript&quot;&gt;\n/* &lt;![CDATA[ */!function(){try{var t=&quot;currentScript&quot;in document?document.currentScript:function(){for(var t=document.getElementsByTagName(&quot;script&quot;),e=t.length;e--;)if(t[e].getAttribute(&quot;cf-hash&quot;))return t[e]}();if(t&amp;&amp;t.previousSibling){var e,r,n,i,c=t.previousSibling,a=c.getAttribute(&quot;data-cfemail&quot;);if(a){for(e=&quot;&quot;,r=parseInt(a.substr(0,2),16),n=2;a.length-n;n+=2)i=parseInt(a.substr(n,2),16)^r,e+=String.fromCharCode(i);e=document.createTextNode(e),c.parentNode.replaceChild(e,c)}}}catch(u){}}();/* ]]&gt; */&lt;/script&gt;\nFormat settings, CABAC         : Yes\nCodec ID/Info                  : Advanced Video Coding\nBit rate                       : 699 Kbps\nWidth                          : 1 280 pixels\nHeight                         : 544 pixels\nDisplay aspect ratio           : 2.35:1\nFrame rate mode                : Constant\nFrame rate                     : 23.976 fps\nBit depth                      : 10 bits\nStream size                    : 445 MiB (89%)\nWriting library                : x264 core 129 r2245 bc13772\n\nAudio\nFormat                         : AAC\nBit rate mode                  : Variable\nBit rate                       : 83.9 Kbps\nChannel(s)                     : 2 channels\nChannel positions              : Front: L R\nSampling rate                  : 48.0 KHz / 24.0 KHz\nStream size                    : 53.5 MiB (11%)\nLanguage                       : English\n\nSubtitle                       : Yes (English)\n\nScreens: &lt;a href=&quot;\nhttp://imgr.us/images/y34g28cu1csh29sikibg.jpg&quot; rel=&quot;nofollow&quot; target=&quot;_NEW&quot;&gt;\nhttp://imgr.us/images/y34g28cu1csh29sikibg.jpg&lt;/a&gt; &lt;a href=&quot;\nhttp://imgr.us/images/5wd7yalhozfx4ib2x7q0.jpg&quot; rel=&quot;nofollow&quot; target=&quot;_NEW&quot;&gt;\nhttp://imgr.us/images/5wd7yalhozfx4ib2x7q0.jpg&lt;/a&gt; &lt;a href=&quot;\nhttp://imgr.us/images/eryupfmk2atq5t25tt4k.jpg&quot; rel=&quot;nofollow&quot; target=&quot;_NEW&quot;&gt;\nhttp://imgr.us/images/eryupfmk2atq5t25tt4k.jpg&lt;/a&gt; &lt;a href=&quot;\nhttp://imgr.us/images/kz81ondfhdkszc2oxvei.jpg&quot; rel=&quot;nofollow&quot; target=&quot;_NEW&quot;&gt;\nhttp://imgr.us/images/kz81ondfhdkszc2oxvei.jpg&lt;/a&gt;\n\nThumbs: &lt;a href=&quot;\nhttp://imgr.us/images/625dsklb2rxrvygymfhj.jpg&quot; rel=&quot;nofollow&quot; target=&quot;_NEW&quot;&gt;\nhttp://imgr.us/images/625dsklb2rxrvygymfhj.jpg&lt;/a&gt;\n----------------------------------------------------------------------------------------------------\nEncoded using revolutionary 10bit encoding, which enables us to provide you more crispier \nand sharper images at small sizes, just make sure you follow our instructions without a fault.\nRecommend to you to use latest version of VLC player. Install K-Lite Codec Pack or shark007 codecs\nin case of any kind of problem in playback (For non-VLC Media Player users). Alternatively, install\nCore AVC codecs, the fastest decoder that there is coupled with Community Center Codec Pack and play\non Windows Media Player Classic. Check sample to be sure.\nEnjoy!","torrent":{"xt":"urn:btih:314b34cbb29ed42c761c2ea4ce3a83af40ed95b8","amp;dn":"Gambit+2012+BRRip+720p+x264+AAC+-+PRiSTiNE+%5BP2PDL%5D","amp;tr":["udp%3A%2F%2Ftracker.openbittorrent.com%3A80","udp%3A%2F%2Fopen.demonii.com%3A1337","udp%3A%2F%2Ftracker.coppersurfer.tk%3A6969","udp%3A%2F%2Fexodus.desync.com%3A6969"],"infoHash":"314b34cbb29ed42c761c2ea4ce3a83af40ed95b8","infoHashBuffer":{"type":"Buffer","data":[49,75,52,203,178,158,212,44,118,28,46,164,206,58,131,175,64,237,149,184]},"announce":[],"urlList":[]}}